<svg xmlns="http://www.w3.org/2000/svg" width="402.394" height="302.313"><path d="M198.523 118.078l126.866 2.28 9.769 71.95-18.018 6.513-118.617 17.911z" fill="#f2b624"/><path d="M70.179 121.986l127.843-3.908v98.653l-107.516-14.799-29.445-7.996z" fill="#2c93da"/><path d="M61.021 29.884h274.504v88.289h-274.504z" fill="#e84c3d" fill-rule="evenodd"/><path d="M76.652 219.422l252.211-1.6-3.266 75.074-5.238 6.721-234.757 1.329-5.155-7.992z" fill="#2dcc64" fill-rule="evenodd"/><path d="M91.505 0l-34.474 25-9.5 75-12.563 30.75-28.25 16.719 39.75-2.156-5.25 20.281-20.469 22.75-16.75 14.031 38.219-3.313 3.844-3.469-3.594 8.594-42.469 14.938 40.344 3.906 27.595-5.28 1.893-9.042 11.581 1.29-8.754 7.407-.03 77.813 8.094 7.063 241.594.031 6.906-6.344-.375-78.563-4.421-7.647 8.972-2.061 1.025 9.708.75 5.75 26.906 6.031 40.313-3.906-42.438-16.969-2.344-5.594 3.094 2.781 38.219 5.344-16.781-14.031-20.438-22.75-7.406-28.781 36.313 3.719-19.969-18s-11.175-20.059-14.313-31c-6.946-24.223-9.5-75-9.5-75l-41.638-25-170.969 10zm56.375 37.969l3.75 1.094v71.563l-4.957 3.625h-60.193l-5.412-4.344 5.987-55.038 5.013 28.288 7.438-37.781c18.233-4.782 48.375-7.406 48.375-7.406zm14.69 2.401l10.498.567 63.188 4.625v63.75l-4.031 4.938h-66.467l-3.188-3.625zm83.818 6.309l59.211-.304 6.781 36.344 6.825-29.001s-3.447.77.031.625l3.269 56.056-4.375 4.114-67.073-.263-4.669-5.133zm-158.382 79.289l29.438.563 5.031 4.375v64.688l-5.469 4.563-28.813-4.313-4.813-4.594v-60.906zm217.875.313l5.281 4.375v58.906l-3.719 4.563-32.875 5.313-4.031-4.563v-63.75l5.156-4.375zm19.422-.776l6.843 64.666-10.797 1.891-3.656-2.781v-58.906l3-3.794zm-188.235 1.338l52.375.813 4.938 4.375v72.813l-4.656 4.563-52.156-6.375-4.906-4.563-.094-67.25zm119.719.156l4.969 4.406v66.125l-4.313 4.563-48.813 7.031-4.5-4.594.375-72.5 5.5-4.375zm-178.178 2.094l-1.072 61.438-3.156 3.375-3.086-.873zm6.99 90.281l61.375.031 4.656 4.813v67.156l-4.375 4.313h-61.594l-4.969-4.25.031-67.25zm82.127.031h62.686l6 4.813-.156 67.25-5 4.219h-64.061l-4.625-4.344.188-67.125zm148.185 0l6.25 4.813v67.156l-5.063 4.313-65.68.156-5.031-4.375v-66.781l4.688-4.813z" fill="#2d3e50" fill-rule="evenodd"/></svg>